<?xml version="1.0" encoding="UTF-8" standalone="no"?>
<svg
   xmlns:dc="http://purl.org/dc/elements/1.1/"
   xmlns:cc="http://creativecommons.org/ns#"
   xmlns:rdf="http://www.w3.org/1999/02/22-rdf-syntax-ns#"
   xmlns:svg="http://www.w3.org/2000/svg"
   xmlns="http://www.w3.org/2000/svg"
   xmlns:sodipodi="http://sodipodi.sourceforge.net/DTD/sodipodi-0.dtd"
   xmlns:inkscape="http://www.inkscape.org/namespaces/inkscape"
   version="1.0"
   width="240"
   height="170"
   viewBox="0 0 240 170"
   preserveAspectRatio="xMidYMid meet"
   id="svg7"
   sodipodi:docname="ic_bird.svg"
   inkscape:version="1.0 (4035a4fb49, 2020-05-01)">
  <metadata
     id="metadata13">
    <rdf:RDF>
      <cc:Work
         rdf:about="">
        <dc:format>image/svg+xml</dc:format>
        <dc:type
           rdf:resource="http://purl.org/dc/dcmitype/StillImage" />
        <dc:title></dc:title>
      </cc:Work>
    </rdf:RDF>
  </metadata>
  <defs
     id="defs11" />
  <sodipodi:namedview
     inkscape:document-rotation="0"
     pagecolor="#000000"
     bordercolor="#666666"
     borderopacity="1"
     objecttolerance="10"
     gridtolerance="10"
     guidetolerance="10"
     inkscape:pageopacity="0"
     inkscape:pageshadow="2"
     inkscape:window-width="1962"
     inkscape:window-height="1213"
     id="namedview9"
     showgrid="false"
     showguides="true"
     inkscape:guide-bbox="true"
     inkscape:zoom="1.4142136"
     inkscape:cx="76.655562"
     inkscape:cy="82.292254"
     inkscape:window-x="582"
     inkscape:window-y="79"
     inkscape:window-maximized="0"
     inkscape:current-layer="svg7"
     inkscape:pagecheckerboard="true">
    <sodipodi:guide
       position="174.6482,979.67018"
       orientation="1,0"
       id="guide839" />
    <sodipodi:guide
       position="743.18382,897.91996"
       orientation="0,-1"
       id="guide841" />
    <sodipodi:guide
       position="1278.2762,173.31574"
       orientation="0,-1"
       id="guide843" />
    <sodipodi:guide
       position="906.68426,117.57696"
       orientation="1,0"
       id="guide845" />
    <inkscape:grid
       type="xygrid"
       id="grid867" />
  </sodipodi:namedview>
  <g
     id="layer1"
     fill="#000000"
     stroke="none"
     transform="matrix(0.02978004,0,0,0.02978004,23.36281,28.362529)"
     style="display:inline"
     inkscape:label="bird">
    <path
       d="m 3838.6446,-952.40064 c -792.4253,219.4228 -1417.7019,1016.273196 -1931.0788,1718.1585 -348.2871,70.0107 -705.594,112.8739 -1036.99391,247.92574 -449.92895,109.0705 -459.94061,529.4865 -694.15623,747.2059 -226.750014,259.6744 -590.46958,58.5492 -875.67982,200.4699 -361.75564,285.5509 559.8583,109.7529 320.82393,337.244 -290.06908,228.6421 27.0015,199.9634 202.09384,109.1668 370.39997,-169.5603 477.70805,432.3729 587.15477,687.6603 -16.71517,-7.6587 127.68284,526.183 303.68213,256.587 7.75486,-364.52 -89.81447,-729.9693 -270.84186,-1046.3769 -175.53828,-240.5156 159.31091,-208.9856 311.62148,-119.8127 256.06237,94.4297 525.21517,18.7113 789.42907,29.7728 121.8539,313.0078 286.7589,666.4284 612.9577,808.0144 320.3087,30.4193 338.7358,266.2369 289.4273,536.9922 98.4614,369.66 -163.9309,530.5775 -411.4053,733.1315 -230.993,254.1873 76.0369,234.4 215.8073,67.8457 311.3239,-354.7425 81.4787,497.3227 367.1973,292.1339 85.3834,-392.6245 49.5842,-803.8893 71.2742,-1204.8041 -75.0636,-295.1396 111.3911,-266.0863 326.598,-226.2728 90.4598,202.964 63.8265,431.6629 85.7095,648.3242 60.3771,215.1248 -115.1546,374.2015 -214.5443,546.375 -165.1649,197.6681 49.0891,339.3817 165.8252,93.288 216.6156,-365.3873 165.5178,122.2564 306.0278,241.0691 216.262,52.8309 95.0059,-372.0237 68.5675,-492.6037 -90.4386,-148.3643 -84.745,-315.0571 -58.4628,-481.4164 190.9683,236.8964 459.068,149.8845 443.8846,-164.923 24.252,-456.5447 243.7282,133.2047 445.3283,193.4327 341.0859,300.3152 341.2321,-287.1585 291.4121,-549.6231 111.8442,111.1791 468.1525,339.1877 662.579,359.0775 265.8912,133.8258 259.6294,-265.8247 204.6201,-433.7801 -47.476,-161.1986 -374.125,-839.2754 129.9174,-592.0266 321.2971,68.7608 676.4221,263.5662 976.5462,258.7523 281.5767,-555.6462 750.6343,-1712.9256 750.6343,-1712.9256 0,0 -1464.4309,-360.64524 -2253.5267,-427.46464 -446.2072,38.4169 -48.8316,-204.5692 73.4395,-378.7455 -24.6303,-254.615904 -736.56,-145.6159 -736.5598,-145.6159 -412.8404,100.532 46.0123,-311.6214 46.0123,-311.6214 337.1358,-416.2475 -774.0495,-114.4727 -855.6507,-69.2893 107.2154,-114.3775 538.2332,-637.2112 290.3294,-755.3257 z M 1277.6466,1227.5061 c 21.8534,0.619 44.6156,3.5633 68.0262,9.2026 349.9551,34.7371 369.432,570.1856 22.0138,627.0321 -66.3116,18.4053 -138.6852,15.1184 -202.2743,-11.7286 -357.65616,-110.1902 -215.56721,-633.8264 112.2343,-624.5061 z m 11.0069,280.2249 c -66.0001,-10e-5 -99.9518,78.0303 -53.9518,127.0304 44,46.9999 127.9325,13.9352 127.9325,-51.0649 0,-40 -34.9807,-75.9655 -73.9807,-75.9655 z M 276.01905,1865.1844 c 61.91767,1.9216 121.07347,45.3407 175.56896,156.4423 -231.30565,137.009 -476.381307,250.8072 -729.88347,340.1311 -265.9042,102.2024 116.79453,-142.41 129.91747,-184.2301 139.0897925,-119.7748 288.17813,-316.5713 424.39704,-312.3433 z"
       style="stroke-width:1"
       id="path2" />
  </g>
</svg>
