<?xml version="1.0" encoding="UTF-8" standalone="no"?>
<svg
   xmlns:dc="http://purl.org/dc/elements/1.1/"
   xmlns:cc="http://creativecommons.org/ns#"
   xmlns:rdf="http://www.w3.org/1999/02/22-rdf-syntax-ns#"
   xmlns:svg="http://www.w3.org/2000/svg"
   xmlns="http://www.w3.org/2000/svg"
   xmlns:sodipodi="http://sodipodi.sourceforge.net/DTD/sodipodi-0.dtd"
   xmlns:inkscape="http://www.inkscape.org/namespaces/inkscape"
   inkscape:version="1.0 (4035a4fb49, 2020-05-01)"
   sodipodi:docname="ic_launcher.svg"
   id="svg7"
   preserveAspectRatio="xMidYMid meet"
   viewBox="0 0 108 108"
   height="108"
   width="108"
   version="1.0">
  <metadata
     id="metadata13">
    <rdf:RDF>
      <cc:Work
         rdf:about="">
        <dc:format>image/svg+xml</dc:format>
        <dc:type
           rdf:resource="http://purl.org/dc/dcmitype/StillImage" />
        <dc:title></dc:title>
      </cc:Work>
    </rdf:RDF>
  </metadata>
  <defs
     id="defs11" />
  <sodipodi:namedview
     inkscape:pagecheckerboard="true"
     inkscape:current-layer="svg7"
     inkscape:window-maximized="0"
     inkscape:window-y="118"
     inkscape:window-x="1364"
     inkscape:cy="64.817652"
     inkscape:cx="31.861512"
     inkscape:zoom="2.6911243"
     inkscape:guide-bbox="true"
     showguides="true"
     showgrid="false"
     id="namedview9"
     inkscape:window-height="1174"
     inkscape:window-width="1371"
     inkscape:pageshadow="2"
     inkscape:pageopacity="0"
     guidetolerance="10"
     gridtolerance="10"
     objecttolerance="10"
     borderopacity="1"
     bordercolor="#666666"
     pagecolor="#000000">
    <sodipodi:guide
       id="guide839"
       orientation="1,0"
       position="174.6482,979.67018" />
    <sodipodi:guide
       id="guide841"
       orientation="0,-1"
       position="743.18382,897.91996" />
    <sodipodi:guide
       id="guide843"
       orientation="0,-1"
       position="1278.2762,173.31574" />
    <sodipodi:guide
       id="guide845"
       orientation="1,0"
       position="906.68426,117.57696" />
    <inkscape:grid
       id="grid867"
       type="xygrid" />
  </sodipodi:namedview>
  <rect
     inkscape:label="rect"
     ry="12.086737"
     y="0"
     x="0"
     height="108"
     width="108"
     id="rect1092"
     style="fill:#a8d2cf;fill-opacity:1;stroke:none;stroke-width:2;stroke-linecap:round;stroke-linejoin:round;stroke-miterlimit:4;stroke-dasharray:none;stroke-opacity:1" />
  <circle
     inkscape:label="circle"
     r="54"
     cy="54"
     cx="54"
     id="path847"
     style="display:inline;fill:#a8d2cf;fill-opacity:1;stroke-width:0.240602;stroke-miterlimit:1.5" />
  <g
     transform="matrix(0.11997664,0,0,0.11997664,-10.022914,-10.430577)"
     inkscape:label="arrow"
     id="g1090">
    <path
       style="fill:#ffffff;fill-opacity:1;stroke:none;stroke-width:20;stroke-linecap:round;stroke-linejoin:round;stroke-miterlimit:4;stroke-dasharray:none;stroke-opacity:1"
       d="M 55.299997,592.67057 985.3659,590.73493 783.31466,768.89482 716.54863,1011.5819 Z"
       id="path869"
       sodipodi:nodetypes="ccccc" />
    <path
       style="fill:#dadada;fill-opacity:1;stroke:none;stroke-width:10px;stroke-linecap:butt;stroke-linejoin:miter;stroke-opacity:1"
       d="M 55.299997,592.67057 716.54863,1011.5819 783.31466,768.89482 985.3659,590.73493 741.35376,759.31312 683.13758,935.32315 Z"
       id="path1086"
       sodipodi:nodetypes="ccccccc" />
  </g>
  <g
     inkscape:label="bird"
     style="display:inline"
     transform="matrix(0.01082418,0,0,0.01082418,8.4917029,10.308956)"
     stroke="none"
     fill="#000000"
     id="layer1">
    <path
       sodipodi:nodetypes="ccccccccccccccccccccccccccccccccccccccc"
       d="m 4337,6044 c -140.51,-118.8127 -89.3844,-606.3873 -306,-241 -116.7361,246.0937 -331.118,104.3712 -165.9531,-93.2969 99.3897,-172.1735 275.0304,-331.2514 214.6532,-546.3763 C 4057.8172,4946.6655 4084.4598,4717.9642 3994,4515 3778.7931,4475.1866 3592.1924,4446.0381 3667.2559,4741.1777 3645.5659,5142.0925 3681.3834,5553.3755 3596,5946 3310.2814,6151.1889 3540.1423,5299.0913 3228.8184,5653.834 3089.048,5820.3883 2782.007,5840.1875 3013,5586 3260.4744,5383.446 3522.8364,5222.5351 3424.375,4852.875 3473.6835,4582.1197 3455.3087,4346.4193 3135,4316 2808.8011,4174.4141 2643.854,3821.0078 2522,3508 2257.7861,3496.9386 1988.7812,3572.5548 1732.7188,3478.125 1580.4083,3388.9521 1245.4617,3357.4843 1421,3598 c 181.0274,316.4075 278.5469,681.8988 270.7915,1046.4189 -175.9992,269.5959 -320.368,-264.2984 -303.6528,-256.6396 C 1278.692,4132.4918 1171.3999,3530.4397 801,3700 625.90759,3790.7966 308.93092,3819.642 599,3591 838.03435,3363.5088 -83.693143,3539.2853 278.0625,3253.7344 563.27272,3111.8137 927.11677,3312.8727 1153.8668,3053.1983 1388.0824,2835.4789 1398.0711,2415.0704 1848,2306 2179.3999,2170.9482 2536.7128,2128.011 2885,2058 3398.3769,1356.1147 4023.5747,559.42277 4816,339.99997 c 308.9433,147.1969 -445.7848,934.58553 -300.3652,759.29103 38.539,-34.808 1209.8369,-359.63323 865.7402,65.209 0,0 -458.9185,412.2038 -46.0781,311.6719 0,0 711.8659,-109.0618 736.4962,145.5541 -122.271,174.1763 -519.5687,417.1262 -73.3615,378.7093 C 6787.5274,2067.2547 8252,2428 8252,2428 c 0,0 -469.1303,1157.344 -750.707,1712.9902 -300.1242,4.8139 -655.2026,-189.9892 -976.5,-258.75 -504.0424,-247.2489 -177.3727,430.7303 -129.8968,591.929 55.0096,167.9553 61.2762,567.5942 -204.615,433.7683 -261.7064,-26.7724 -818.7513,-431.4373 -674.6562,-419.3125 60.5044,218.442 88.7475,934.0881 -279.4473,609.9043 C 5034.5777,5038.3014 4815.252,4448.4553 4791,4905 c 15.1834,314.8075 -253.0317,401.8965 -444,165 -26.2823,166.3593 -31.9543,333.0732 58.4844,481.4375 C 4431.9228,5672.0178 4553.2619,6096.8309 4337,6044 Z"
       id="path2" />
    <path
       d="m 2345,3156 c 347.4182,-56.8465 327.9551,-592.2628 -22,-627 -374.5696,-90.2306 -561.7362,497.745 -180.2363,615.2812 63.589,26.847 135.9247,30.1241 202.2363,11.7188 z"
       id="path1065"
       style="fill:#ffffff;fill-opacity:1" />
    <path
       d="m 699,3654 c 253.50219,-89.3239 498.6943,-202.9909 730,-340 -174.3858,-355.525 -397.6992,-18.3545 -600.01172,155.8633 C 815.86533,3511.6836 433.09578,3756.2025 699,3654 Z"
       id="path1063"
       style="fill:#ffffff;fill-opacity:1" />
    <path
       id="path4"
       d="m 2212,2927 c -46,-49 -12,-127 54,-127 39,0 74,36 74,76 0,65 -84,98 -128,51 z" />
  </g>
</svg>
