<?xml version="1.0" encoding="UTF-8"?>
<svg width="108" height="108" version="1.0" viewBox="0 0 108 108" xmlns="http://www.w3.org/2000/svg">
  <path d="m54.819 70.737c-1.0038-0.84876-0.63854-4.332-2.186-1.7217-0.83399 1.758-2.3654 0.7456-1.1855-0.6665 0.71003-1.23 1.9647-2.3664 1.5334-3.9032-0.15633-1.5478 0.034-3.1816-0.61222-4.6315-1.5374-0.28442-2.8705-0.49266-2.3342 1.6158-0.15495 2.8641 0.10093 5.8022-0.50904 8.6072-2.0411 1.4659-0.39904-4.6214-2.6231-2.0872-0.9985 1.1898-3.1919 1.3312-1.5418-0.4846 1.7679-1.447 3.6422-2.5965 2.9388-5.2373 0.35225-1.9343 0.22098-3.618-2.0673-3.8354-2.3303-1.0115-3.5087-3.5361-4.3792-5.7722-1.8874-0.07902-3.8093 0.46118-5.6385-0.21342-1.0881-0.63704-3.4809-0.8618-2.2268 0.85643 1.2933 2.2604 1.9899 4.8714 1.9345 7.4753-1.2573 1.926-2.2886-1.8881-2.1693-1.8334-0.78189-1.8237-1.5484-6.1247-4.1945-4.9134-1.2508 0.64864-3.5152 0.8547-1.4431-0.77868 1.7076-1.6252-4.877-0.36944-2.2928-2.4094 2.0375-1.0138 4.6367 0.42248 6.2566-1.4326 1.6733-1.5554 1.7445-4.5587 4.9587-5.3379 2.3675-0.96476 4.9201-1.2716 7.4082-1.7717 3.6675-5.0142 8.134-10.706 13.795-12.274 2.207 1.0515-3.1846 6.6766-2.1458 5.4242 0.27532-0.24866 8.6427-2.5691 6.1847 0.46584 0 0-3.2785 2.9447-0.32918 2.2265 0 0 5.0855-0.7791 5.2614 1.0397-0.87351 1.2443-3.7118 2.9799-0.52409 2.7054 5.6372 0.47734 16.099 3.0544 16.099 3.0544s-3.3514 8.2673-5.3629 12.237c-2.144 0.03439-4.6806-1.3573-6.976-1.8485-3.6008-1.7663-1.2671 3.0771-0.92796 4.2286 0.39298 1.1999 0.43774 4.0548-1.4617 3.0988-1.8696-0.19125-5.849-3.0821-4.8196-2.9955 0.43223 1.5605 0.634 6.673-1.9963 4.357-1.4402-0.43026-3.007-4.644-3.1803-1.3825 0.10846 2.249-1.8076 2.8711-3.1719 1.1788-0.18775 1.1884-0.22828 2.3794 0.4178 3.4393 0.18887 0.86138 1.0558 3.8961-0.48924 3.5188z"/>
  <path d="m40.588 50.106c2.4819-0.4061 2.3429-4.231-0.15716-4.4792-2.6759-0.6446-4.013 3.5558-1.2876 4.3954 0.45427 0.19179 0.97102 0.2152 1.4447 0.08372z" fill="#fff"/>
  <path d="m28.83 53.664c1.811-0.63812 3.5626-1.4501 5.215-2.4289-1.2458-2.5398-2.8411-0.13112-4.2864 1.1134-0.09374 0.29876-2.8282 2.0456-0.92862 1.3155z" fill="#fff"/>
  <path d="m39.638 48.47c-0.32861-0.35005-0.08573-0.90725 0.38577-0.90725 0.27861 0 0.52864 0.25718 0.52864 0.54293 0 0.46435-0.60008 0.7001-0.91443 0.36434z"/>
</svg>
