<?xml version="1.0" encoding="UTF-8"?>
<svg width="108" height="108" version="1.0" viewBox="0 0 108 108" xmlns="http://www.w3.org/2000/svg">
 <path d="m58.24 29.988c-5.6608 1.5675-10.127 7.2593-13.795 12.273-2.4881 0.50011-5.0407 0.80673-7.4082 1.7715-3.2142 0.77921-3.2857 3.7825-4.959 5.3379-1.6198 1.8551-4.2184 0.41976-6.2559 1.4336-2.5842 2.04 4.0006 0.78304 2.293 2.4082-2.0721 1.6334 0.19258 1.4279 1.4434 0.7793 2.6461-1.2113 3.4115 3.0903 4.1934 4.9141-0.11938-0.054698 0.91262 3.758 2.1699 1.832 0.05544-2.6039-0.64033-5.2142-1.9336-7.4746-1.2541-1.7182 1.1385-1.4945 2.2266-0.85742 1.8292 0.67459 3.7512 0.13582 5.6387 0.21484 0.87046 2.2361 2.0486 4.76 4.3789 5.7715 2.2883 0.21739 2.4187 1.9016 2.0664 3.8359 0.70339 2.6407-1.1716 3.7894-2.9395 5.2363-1.6502 1.8158 0.54447 1.6742 1.543 0.48438 2.224-2.5341 0.58192 3.5537 2.623 2.0879 0.60997-2.805 0.35481-5.7434 0.50976-8.6074-0.53633-2.1084 0.7966-1.8997 2.334-1.6152 0.64622 1.4499 0.455 3.0831 0.61133 4.6309 0.43131 1.5368-0.82318 2.6743-1.5332 3.9043-1.1799 1.4121 0.35156 2.424 1.1855 0.66602 1.5475-2.6103 1.1818 0.87195 2.1855 1.7207 1.545 0.37736 0.6791-2.6582 0.49024-3.5195-0.64607-1.06-0.60572-2.251-0.41797-3.4395 1.3643 1.6923 3.2803 1.0712 3.1719-1.1777 0.17325-3.2615 1.7395 0.95255 3.1797 1.3828 2.4369 2.1457 2.4381-2.0531 2.082-3.9277 0.79865 0.79413 3.3452 2.4243 4.7344 2.5664 1.8995 0.95601 1.8539-1.8997 1.4609-3.0996-0.33916-1.1515-2.6731-5.9948 0.92774-4.2285 2.2953 0.4912 4.8326 1.884 6.9766 1.8496 2.0115-3.9699 5.3633-12.238 5.3633-12.238s-10.462-2.5773-16.1-3.0547c-3.1877 0.27448-0.35007-1.4607 0.52344-2.7051-0.17597-1.8188-5.2598-1.0391-5.2598-1.0391-2.9493 0.71816 0.32812-2.2266 0.32812-2.2266 2.4096-2.9752-5.5381-0.81509-6.1133-0.49414 0.76418-0.81475 3.846-4.5523 2.0742-5.3965zm-18.41 15.572c0.19141-0.004871 0.39251 0.016047 0.60156 0.066406 2.5001 0.24816 2.6382 4.0724 0.15625 4.4785-0.47372 0.13148-0.99104 0.1078-1.4453-0.083985-2.5125-0.77408-1.5712-4.4035 0.6875-4.4609zm0.19336 2.002c-0.4715 0-0.71338 0.5562-0.38477 0.90625 0.31435 0.33576 0.91406 0.10107 0.91406-0.36328 0-0.28576-0.25069-0.54297-0.5293-0.54297zm-7.2344 2.5547c0.44233 0.013727 0.86654 0.32351 1.2559 1.1172-1.6524 0.97878-3.4039 1.7916-5.2148 2.4297-1.8996 0.73012 0.834-1.0176 0.92773-1.3164 0.9936-0.85562 2.0581-2.2607 3.0312-2.2305z" />
</svg>
